<mxfile host="app.diagrams.net" modified="2023-10-13T05:39:08.898Z" agent="Mozilla/5.0 (Macintosh; Intel Mac OS X 10_15_7) AppleWebKit/537.36 (KHTML, like Gecko) Chrome/117.0.0.0 Safari/537.36" version="22.0.4" etag="-GVDnP0dbyUekISvqx52" type="github">
  <diagram name="ページ1" id="bCsusTf6sn5dPC0Yqio9">
    <mxGraphModel>
      <root>
        <mxCell id="0" />
        <mxCell id="1" parent="0" />
      </root>
    </mxGraphModel>
  </diagram>
</mxfile>
